/* XPM */
static char * Wooden_Floor_Vertical_64x64_xpm[] = {
"64 64 8 1",
" 	c #493F25",
".	c #4B4026",
"+	c #7D6140",
"@	c #795E3E",
"#	c #5B482E",
"$	c #705638",
"%	c #6E5537",
"&	c #382F1C",
"  ..++++@@##++##################++@@++++++@@++####    ##########",
"  ..++++@@##++##################++@@++++++@@++####    ##########",
"++@@++++############    $$######++@@++++++@@++####    $$++######",
"++@@@+++##########++    $$++####++@@+++++@@@++####   $$+++++####",
"+++@@@++  @######+++    $$+++###++@@+++++@@@++####..$$$++++++###",
"++++@@+++ @@#####+++    $$++++##++@@++++@@@+++##++..$$+++++++###",
"++++@@++++@@+###++++####++++++##++@@++++@@@+++##++##$$++++++++##",
"++++@@++++@@++##+++++###++++++##++@@++++@@++++##++##$+++++++++##",
"++++@@++++@@++##++++++@@++++++##++@@++++@@++++##++@@++++++++++##",
"++++@@++++@@++##++++++@@++++++##++@@++++@@++++##++@@++++++++++##",
"++++@@++++@@++##++++++@@++++++##++@@++++@@++++##++@@++++++++++##",
"++++@@++++@@++##++++++@@++++++##++@@++++@@++++##++@@++++++++++##",
"++++@@++++@@++##++++++@@+++#  ##++@@++++@@++++##++@@++++++++++##",
"++++@@++++@@++##++++++@@++##  ##++@@++++@@++++##++@@++++++++++##",
"++++@@++++@@++##++@@++@@++++++##+++@@@++%%++++##++@@++++++++++##",
"++++@@++++@@++##++@@++@@++++++##++++@@++%%++++##++@@++++++++++##",
"    ####++@@++##++@@++@@++++++##++++@@++##++++##++@@++++++++++##",
"    ####++@@++##++@@++@@++++++##++++@@++##++++##++@@++++++++++##",
"    ####++@@++##++@@++@@++++++##++++@@++..$+++##++@@###$$+++++##",
"    ###+++@@++##++@@++@@++++++##++++@@++..$$++##++@@###$$+++++##",
"++++@@++++@@++##++@@++@@++++++##++++@@++..$$++##  ..##$$$+++++##",
"++++@@++++@@++##++@@++@@++++++##++++@@++..$$++##  ..##$+++++++##",
"++++@@++++@@++##++@@++@@++++++##++++@@++..$$++##  %%++++++++++##",
"++++@@++++@@++##++@@++@@++++++##++++@@++..$$++##  %%++++++++++##",
"++++@@++++@@++##++@@++@@++@@++##++++@@++..$$++##++@@++++@+++++##",
"++++@@++++@@++##++@@++@@++@@++##++++@@++..$$++##++@@++++@@++++##",
"++++@@++++##++##  ##$$@@++@@++##++++@@##..$$++##++@@@+++@@++++##",
"++++@@++++##++##  ##$$@@++@@++##++++@@##..$$++##++@@@+++@@++++##",
"++++@@++++ #++##  %%++@@++@@++##++++@@##..$$++##+++@@@++@@++++##",
"+++++@+++  #++##  %%++@@++@@++##+++++@##..$$++##+++@@@++@@++++##",
"&+++++++    &&##++@@++@@++@@++##&+++++    $$&&##++++@@++@@++++##",
"&&++++++    &&##++@@++@@++@@++###&++++    $$&###++++@@++@@++++##",
"################++@@++@@++@@++##################++++@@++@@++++##",
"################++@@++@@++@@++##################++++@@++@@++++##",
"&&++    ++++++##++@@++@@++@@  ###&    ++    &###++++@@++@@++++##",
"&+++    ++++++##++@@++@@++@@  ##&&    +++   &&##++++@@++@@++++##",
"++++    @@++++##++@@++@@++@@++##++    +++   ++##++++@@++@@++++##",
"++++    @@++++##++@@++@@++@@++##++    ++++  ++##++++@@++@@++++##",
"++++   #@@++++##++@@++@@++@@++##++   #++++##++##++++@@++@@++++##",
"++++ ###@@++++##++@@++@@++@@++##++  #+++++##++##++++@@++@@++++##",
"++++###+@@++++##  %%++@@++@@++##++  ++++++++++##++++@@++@@++++##",
"+++++#++@@++++##  %%++@@++@@++##++  ++++++++++##++++@@++@+++++##",
"+++@++++@@++++##++@@++@@++@@++##++  ++++++@@++##    ###+++++++##",
"++@@++++@@++++##++@@++@@++@@++##++  ++++++@@++##    ###+++++++##",
"++@@++++@@++++##++@@++@@++@@++##@@##++++++@@++##   +++++++@++###",
"++@@++++@@++++##++@@++@@++@@++##@@#+++++++@@++##  ++++++++@@####",
"  ..++++@@++++##++@@++@@++@@++##@@++++++++@@++##++++++++++@#####",
"  ..++++@@++++##++@@++@@++@@++##@@++++++++@@++##++++++++++######",
"  ####++@@++++##++@@++@@++@@++##@@++++++++@@++##+++++++++#######",
"  ####++@@++++##++@@++@@++@@++##@@++++++++@@++##++++++++########",
"  @@++++@@++++##++@@++++++@@++##@@++++++++@@++##++++++++########",
"  @@++++@@++++##++@@++++++@@++##@@++++++++@@++##++++++++########",
"++@@++++@@++++##++@@+++++##$$$##..##++++++@@++##++++++++++@#####",
"++@@++++@@++++##++@@++++###$$$##..#+++++++@@++##++++++++++@@####",
"++@@++++@@++++##++@@++++####$$##..++++++++@@++##++++++++++@@+###",
"++@@++++@@++++##++@@++++####$$##..++++++++@@++##++++++++++@@++##",
"++@@++++@@++++##++@@++++    $$##@@++++++++@@++##++++++++++@@++##",
"++@@++++@@++++##++++++++    $$##@@++++++++@@++##++++++++++@@++##",
"++@@++++@@++++##++++++++    $$##@+@+++++++@@++##++++++++++@@++##",
"++@@++++@@++++##++++++++    $$##++@+++++++@@++##++++++++++@+++##",
"++@@##++@@++++##++++++++    $$##+@@@++++++@@++##++++++++++++++##",
"++@###++@@++++##++++++++    $$##++@@++++++@@++##++++++++++++++##",
"  ####++@@++++##&&++++++    &&##++@@++++++@@++##&+++++++++++&&##",
"  ####++@@++++##&&++++++    &&##++@@++++++@@++##&&++++++++++&&##"};
